<?xml version="1.0" standalone="no"?>
<!DOCTYPE svg PUBLIC "-//W3C//DTD SVG 20010904//EN"
 "http://www.w3.org/TR/2001/REC-SVG-20010904/DTD/svg10.dtd">
<svg version="1.0" xmlns="http://www.w3.org/2000/svg"
 width="250.000000pt" height="250.000000pt" viewBox="0 0 250.000000 250.000000"
 preserveAspectRatio="xMidYMid meet">
<metadata>
Created by potrace 1.10, written by Peter Selinger 2001-2011
</metadata>
<g transform="translate(0.000000,250.000000) scale(0.100000,-0.100000)"
fill="#000000" stroke="none">
<path d="M1150 2337 c-7 -18 -16 -122 -20 -243 -7 -192 -23 -324 -39 -324 -4
0 -21 24 -39 54 -30 50 -93 116 -111 116 -4 0 1 -30 10 -67 10 -38 18 -106 18
-153 1 -87 -26 -335 -39 -358 -4 -9 -20 12 -45 60 -21 40 -47 84 -59 96 -22
24 -75 57 -82 50 -2 -2 6 -29 18 -59 25 -65 34 -225 23 -406 l-8 -118 -21 30
c-36 51 -102 115 -119 115 -14 0 -15 -4 -2 -41 23 -65 43 -192 60 -379 26
-291 55 -403 127 -484 79 -91 227 -140 423 -140 l120 -1 85 44 c216 111 301
201 345 366 19 69 32 335 20 411 l-7 49 -19 -45 -19 -45 7 85 c12 141 7 270
-11 340 -18 67 -74 181 -91 183 -6 1 -13 -37 -16 -88 -7 -88 -21 -157 -37
-183 -5 -8 -12 40 -16 119 -12 223 -57 404 -123 498 -35 49 -86 92 -97 81 -2
-3 2 -34 10 -70 7 -36 13 -110 13 -165 l-1 -100 -13 64 c-19 84 -36 136 -106
319 -63 164 -93 266 -104 355 -9 68 -19 78 -35 34z m73 -412 c50 -158 50 -387
1 -492 -23 -47 -31 -30 -40 88 -8 111 4 475 16 462 4 -4 15 -30 23 -58z m80
-870 c5 -52 4 -50 33 -59 17 -5 26 2 48 34 l27 41 37 -22 c65 -39 66 -41 43
-87 l-20 -40 20 -18 c20 -18 23 -18 90 10 11 5 23 -7 43 -44 27 -50 27 -52 10
-65 -55 -39 -57 -42 -51 -67 6 -21 15 -27 52 -32 l45 -7 0 -59 0 -59 -45 -7
c-37 -5 -46 -11 -52 -32 -6 -25 -4 -28 51 -67 17 -13 17 -15 -10 -64 -15 -28
-31 -51 -35 -51 -5 0 -24 8 -43 17 -34 16 -37 15 -55 -1 -20 -18 -20 -19 0
-58 23 -46 22 -48 -43 -87 l-37 -22 -27 41 c-22 32 -31 39 -48 34 -29 -9 -28
-7 -33 -59 l-6 -45 -58 0 -59 0 0 38 c0 44 -8 57 -36 66 -17 5 -26 -2 -48 -34
l-27 -41 -37 22 c-65 39 -66 41 -43 87 20 39 20 40 0 58 -18 16 -21 17 -55 1
-19 -9 -38 -17 -43 -17 -4 0 -20 23 -35 51 -27 49 -27 51 -10 64 55 39 57 42
51 67 -6 21 -15 27 -52 32 l-45 7 0 59 0 59 45 7 c37 5 46 11 52 32 6 25 4 28
-51 67 -17 13 -17 15 10 65 20 37 32 49 43 44 64 -25 72 -26 91 -9 19 17 19
18 -1 57 -23 46 -22 48 43 87 l37 22 27 -41 c22 -32 31 -39 48 -34 28 9 36 22
36 67 l0 37 59 0 58 0 6 -45z"/>
<path d="M1190 861 c-120 -39 -188 -154 -160 -271 46 -192 279 -239 387 -78
95 142 8 335 -159 353 -24 2 -54 1 -68 -4z"/>
</g>
</svg>
