<?xml version="1.0" standalone="no"?>
<!DOCTYPE svg PUBLIC "-//W3C//DTD SVG 20010904//EN"
 "http://www.w3.org/TR/2001/REC-SVG-20010904/DTD/svg10.dtd">
<svg version="1.0" xmlns="http://www.w3.org/2000/svg"
 width="160.000000pt" height="160.000000pt" viewBox="0 0 160.000000 160.000000"
 preserveAspectRatio="xMidYMid meet">
<metadata>
Created by potrace 1.14, written by Peter Selinger 2001-2017
</metadata>
<g transform="translate(0.000000,160.000000) scale(0.100000,-0.100000)"
fill="#000000" stroke="none">
<path d="M1320 1580 c0 -13 -7 -20 -20 -20 -17 0 -20 -7 -20 -40 l0 -40 -40 0
-40 0 0 -40 c0 -33 -3 -40 -20 -40 -17 0 -20 -7 -20 -40 l0 -40 -40 0 c-33 0
-40 3 -40 20 0 13 -7 20 -20 20 -17 0 -20 7 -20 40 0 33 -3 40 -20 40 -17 0
-20 7 -20 40 0 33 -3 40 -20 40 -17 0 -20 -7 -20 -40 0 -33 -3 -40 -20 -40
-13 0 -20 -7 -20 -20 0 -13 -7 -20 -20 -20 -17 0 -20 7 -20 40 0 33 -3 40 -20
40 -13 0 -20 -7 -20 -20 0 -13 -7 -20 -20 -20 -13 0 -20 -7 -20 -20 0 -13 -7
-20 -20 -20 -13 0 -20 7 -20 20 0 13 -7 20 -20 20 -17 0 -20 7 -20 40 0 33 -3
40 -20 40 -17 0 -20 -7 -20 -40 0 -33 -3 -40 -20 -40 -17 0 -20 -7 -20 -40 0
-33 -3 -40 -20 -40 -13 0 -20 -7 -20 -20 0 -13 -7 -20 -20 -20 -18 0 -20 7
-20 60 0 53 -2 60 -20 60 -17 0 -20 -7 -20 -40 0 -33 -3 -40 -20 -40 -17 0
-20 -7 -20 -40 0 -33 -3 -40 -20 -40 -17 0 -20 -7 -20 -40 0 -33 -3 -40 -20
-40 -13 0 -20 -7 -20 -20 0 -18 -7 -20 -60 -20 -53 0 -60 2 -60 20 0 17 -7 20
-40 20 -33 0 -40 3 -40 20 0 18 -7 20 -60 20 -53 0 -60 2 -60 20 0 17 -7 20
-40 20 l-40 0 0 -200 c0 -193 1 -200 20 -200 13 0 20 -7 20 -20 0 -18 7 -20
80 -20 73 0 80 -2 80 -20 0 -17 7 -20 40 -20 l40 0 0 -40 c0 -33 3 -40 20 -40
18 0 20 -7 20 -80 0 -73 -2 -80 -20 -80 -13 0 -20 7 -20 20 0 17 -7 20 -40 20
-33 0 -40 3 -40 20 0 18 -7 20 -60 20 -53 0 -60 2 -60 20 0 17 -7 20 -40 20
l-40 0 0 -340 0 -340 740 0 740 0 0 40 c0 33 3 40 20 40 19 0 20 7 20 160 0
153 -1 160 -20 160 -17 0 -20 7 -20 40 0 33 -3 40 -20 40 -13 0 -20 7 -20 20
0 13 -7 20 -20 20 -19 0 -20 7 -20 160 0 153 -1 160 -20 160 -18 0 -20 7 -20
60 0 53 -2 60 -20 60 -18 0 -20 7 -20 80 0 73 2 80 20 80 13 0 20 7 20 20 0
13 7 20 20 20 13 0 20 7 20 20 0 13 7 20 20 20 13 0 20 7 20 20 0 13 7 20 20
20 13 0 20 7 20 20 0 13 7 20 20 20 13 0 20 7 20 20 0 13 7 20 20 20 13 0 20
7 20 20 0 13 7 20 20 20 19 0 20 7 20 120 l0 120 -140 0 c-133 0 -140 -1 -140
-20z"/>
</g>
</svg>
